<svg version="1.1" id="レイヤー_1" xmlns="http://www.w3.org/2000/svg" xmlns:xlink="http://www.w3.org/1999/xlink" x="0px"
     y="0px" width="728px" height="728px" viewBox="0 0 728 728" enable-background="new 0 0 728 728" xml:space="preserve">
    <g>
        <defs>
            <rect id="SVGID_1_" width="728" height="728"/>
        </defs>
        <clipPath id="SVGID_2_">
            <use xlink:href="#SVGID_1_"  overflow="visible"/>
        </clipPath>
        <path clip-path="url(#SVGID_2_)" fill="#FFFFFF" d="M284.552,629.753c0,0,216.612-54.713,432.494,108.877
                                                           c-45.799,6.311-307.47-35.832-318.078-44.821s-25.986-2.906-46.64-2.403c-20.651,0.503-56.498,0.578-69.492-0.875
                                                           c-15.47,9.34-71.343,26.228-87.347,16c-18.573,3.821-46.914,7.366-55.291-3.733c-3.655,14.018,1.466,25.024-0.827,29.304
                                                           c-2.293,4.28-136.918-36.45-137.317-22.341s-9.412,25.595-13.726,24.491c-4.314-1.104-36.933,0.054-43.415-1.168
                                                           c-6.482-1.223-6.421-3.394,0.274-9.722c6.695-6.328,17.193,6.565,32.951-51.426c15.758-57.992,21.906-121.904,34.182-133.505
                                                           c-5.287-43.597-14.482-179.632,2.901-218.245c3.592-11.847-2.63-15.823-2.231-29.933c0,0,0.017-7.06,5.688-15.589
                                                           c-1.803-13.086-10.744-42.665-5.913-59.908C4.329,205.83,0.202,198.11,0.202,198.11l-0.595-17.396c0,0-19.948-24.459,4.848-56.345
                                                           c18.39,2.692,55.549,33.067,63.466,60.446c20.683-1.589,43.506-2.031,53.243-0.67c13.362-11.571,45.694-41.072,71.054-54.477
                                                           c0,0,4.784,22.944,1.191,34.792c-3.592,11.847-6.375,33.492-19.798,47.234c1.559,21.768-13.881,30.022-19.492,36.38
                                                           c4.937,17.518,8.268,53.458-10.796,74.643c3.575,27.256,1.816,51.103,7.991,63.226s85.06,180.537,86.587,203.39
                                                           C261.625,595.435,264.667,603.123,284.552,629.753z"/>
        <g clip-path="url(#SVGID_2_)">
            <g>
                <path fill="#777777" d="M584.808,559.484h-63.922V54.311h63.922V559.484z"/>
            </g>
        </g>
        <polygon clip-path="url(#SVGID_2_)" fill="#CCCCCC" points="248,56 248,323.482 141.189,56 78,56 78,560 141,560 141,139.914 
                                                                   246.974,409 298,409 298,56  "/>
        <g clip-path="url(#SVGID_2_)">
            <path fill="#2E2624" d="M328.634,414.515c5.799,2.32,11.061,6.381,15.783,12.18c3.811,4.723,6.38,10.522,7.706,17.399
                                    c0.827,4.558,1.242,11.228,1.242,20.009l-0.248,85.382h-36.29v-86.252c0-5.136-0.829-9.361-2.486-12.677
                                    c-3.149-6.295-8.948-9.445-17.399-9.445c-9.777,0-16.529,4.061-20.258,12.18c-1.906,4.31-2.858,9.488-2.858,15.535v80.659h-35.669
                                    v-80.659c0-8.035-0.829-13.877-2.485-17.523c-2.982-6.544-8.824-9.818-17.523-9.818c-10.109,0-16.902,3.274-20.383,9.818
                                    c-1.906,3.729-2.858,9.28-2.858,16.654v81.528h-35.917V414.266h34.426v19.761c4.391-7.041,8.533-12.055,12.429-15.038
                                    c6.876-5.301,15.783-7.954,26.72-7.954c10.356,0,18.725,2.28,25.105,6.836c5.136,4.226,9.029,9.653,11.683,16.281
                                    c4.639-7.954,10.396-13.796,17.274-17.524c7.29-3.729,15.411-5.593,24.359-5.593C316.951,411.034,322.833,412.195,328.634,414.515
                                    z"/>
            <path fill="#2E2624" d="M474.203,416.761c9.449,4.233,17.254,10.914,23.409,20.041c5.548,8.049,9.146,17.384,10.793,28.006
                                    c0.954,6.224,1.342,15.186,1.167,26.886h-98.664c0.55,13.59,5.272,23.116,14.166,28.585c5.41,3.398,11.92,5.096,19.53,5.096
                                    c8.068,0,14.624-2.07,19.668-6.215c2.749-2.236,5.181-5.344,7.289-9.32h36.162c-0.953,8.037-5.33,16.199-13.131,24.483
                                    c-12.135,13.174-29.123,19.761-50.965,19.761c-18.029,0-33.935-5.556-47.717-16.668c-13.781-11.111-20.672-29.19-20.672-54.235
                                    c0-23.466,6.221-41.461,18.662-53.982c12.439-12.521,28.589-18.784,48.442-18.784C454.134,410.413,464.754,412.53,474.203,416.761
                                    z M421.214,447.359c-5.006,5.16-8.149,12.148-9.436,20.969h61.022c-0.645-9.402-3.789-16.537-9.436-21.405
                                    c-5.647-4.868-12.649-7.304-21.008-7.304C433.266,439.619,426.219,442.2,421.214,447.359z"/>
        </g>
        <g clip-path="url(#SVGID_2_)">
            <g>
                <path fill="#2E2624" d="M348.857,311.015c4.211-0.528,7.222-1.191,9.035-1.984c3.252-1.376,4.878-3.519,4.878-6.43
                                        c0-3.545-1.248-5.992-3.742-7.342s-6.154-2.024-10.981-2.024c-5.417,0-9.253,1.323-11.506,3.969
                                        c-1.609,1.958-2.683,4.604-3.218,7.938h-21.828c0.478-7.566,2.604-13.784,6.377-18.652c6.006-7.62,16.315-11.431,30.931-11.431
                                        c9.513,0,17.962,1.879,25.351,5.636c7.387,3.758,11.08,10.849,11.08,21.272v39.687c0,2.752,0.052,6.086,0.158,10.001
                                        c0.159,2.964,0.607,4.975,1.35,6.032c0.74,1.06,1.852,1.933,3.334,2.619v3.334h-24.606c-0.688-1.746-1.164-3.386-1.429-4.921
                                        c-0.265-1.534-0.476-3.28-0.635-5.239c-3.14,3.388-6.76,6.271-10.857,8.652c-4.896,2.804-10.433,4.206-16.606,4.206
                                        c-7.878,0-14.385-2.235-19.521-6.707c-5.137-4.471-7.704-10.807-7.704-19.01c0-10.636,4.132-18.335,12.394-23.098
                                        c4.532-2.592,11.195-4.444,19.991-5.556L348.857,311.015z M362.689,321.571c-1.448,0.9-2.91,1.627-4.385,2.183
                                        c-1.477,0.556-3.5,1.071-6.075,1.548l-5.149,0.952c-4.826,0.847-8.293,1.879-10.397,3.096c-3.563,2.063-5.344,5.266-5.344,9.604
                                        c0,3.863,1.087,6.655,3.264,8.374c2.176,1.721,4.822,2.58,7.938,2.58c4.943,0,9.497-1.429,13.661-4.286
                                        c4.165-2.857,6.326-8.069,6.487-15.637V321.571z"/>
                <path fill="#2E2624" d="M447.797,277.042c5.495,2.276,9.934,6.457,13.317,12.541v-12.461h22.065v82.071
                                        c0,11.165-1.879,19.578-5.636,25.241c-6.456,9.735-18.839,14.604-37.146,14.604c-11.061,0-20.081-2.17-27.066-6.509
                                        c-6.984-4.339-10.848-10.821-11.588-19.446h24.605c0.635,2.646,1.667,4.551,3.096,5.715c2.433,2.063,6.534,3.096,12.303,3.096
                                        c8.148,0,13.599-2.726,16.351-8.176c1.799-3.492,2.699-9.365,2.699-17.62v-5.557c-2.171,3.704-4.499,6.482-6.985,8.334
                                        c-4.498,3.44-10.346,5.159-17.541,5.159c-11.112,0-19.99-3.901-26.63-11.707c-6.642-7.805-9.962-18.375-9.962-31.71
                                        c0-12.858,3.197-23.665,9.592-32.424c6.395-8.757,15.458-13.137,27.19-13.137C440.794,275.058,444.572,275.721,447.797,277.042z
                                        M455.501,339.072c3.636-3.994,5.454-10.357,5.454-19.089c0-8.201-1.727-14.446-5.178-18.732s-8.075-6.429-13.87-6.429
                                        c-7.905,0-13.358,3.73-16.362,11.191c-1.581,3.969-2.371,8.863-2.371,14.684c0,5.028,0.842,9.499,2.528,13.414
                                        c3.056,7.303,8.536,10.954,16.441,10.954C447.412,345.065,451.864,343.068,455.501,339.072z"/>
                <path fill="#2E2624" d="M538.56,311.015c4.211-0.528,7.222-1.191,9.035-1.984c3.252-1.376,4.878-3.519,4.878-6.43
                                        c0-3.545-1.248-5.992-3.742-7.342s-6.154-2.024-10.981-2.024c-5.417,0-9.253,1.323-11.506,3.969
                                        c-1.609,1.958-2.683,4.604-3.218,7.938h-21.828c0.478-7.566,2.604-13.784,6.377-18.652c6.006-7.62,16.315-11.431,30.931-11.431
                                        c9.513,0,17.962,1.879,25.351,5.636c7.387,3.758,11.08,10.849,11.08,21.272v39.687c0,2.752,0.052,6.086,0.158,10.001
                                        c0.159,2.964,0.607,4.975,1.35,6.032c0.74,1.06,1.852,1.933,3.334,2.619v3.334h-24.606c-0.688-1.746-1.164-3.386-1.429-4.921
                                        c-0.265-1.534-0.476-3.28-0.635-5.239c-3.14,3.388-6.76,6.271-10.857,8.652c-4.896,2.804-10.433,4.206-16.606,4.206
                                        c-7.878,0-14.385-2.235-19.521-6.707c-5.137-4.471-7.704-10.807-7.704-19.01c0-10.636,4.132-18.335,12.394-23.098
                                        c4.532-2.592,11.195-4.444,19.991-5.556L538.56,311.015z M552.392,321.571c-1.448,0.9-2.91,1.627-4.385,2.183
                                        c-1.477,0.556-3.5,1.071-6.075,1.548l-5.149,0.952c-4.826,0.847-8.293,1.879-10.397,3.096c-3.563,2.063-5.344,5.266-5.344,9.604
                                        c0,3.863,1.087,6.655,3.264,8.374c2.176,1.721,4.822,2.58,7.938,2.58c4.943,0,9.497-1.429,13.661-4.286
                                        c4.165-2.857,6.326-8.069,6.487-15.637V321.571z"/>
            </g>
        </g>
        <circle clip-path="url(#SVGID_2_)" fill="#FFFFFF" cx="546.109" cy="155.156" r="49.226"/>
        <circle clip-path="url(#SVGID_2_)" fill="#FFFFFF" cx="351.34" cy="124.479" r="49.224"/>
        <circle clip-path="url(#SVGID_2_)" fill="#FFFFFF" cx="382.016" cy="193.682" r="49.224"/>
        <circle clip-path="url(#SVGID_2_)" fill="#FFFFFF" cx="396.743" cy="96.394" r="45.395"/>
        <path clip-path="url(#SVGID_2_)" fill="#FFFFFF" d="M543.962,109.025c0,25.066-20.325,45.391-45.396,45.391
                                                           s-45.392-20.324-45.392-45.391c0-25.074,20.321-45.396,45.392-45.396S543.962,83.951,543.962,109.025z"/>
        <circle clip-path="url(#SVGID_2_)" fill="#FFFFFF" cx="429.997" cy="126.289" r="61.281"/>
        <circle clip-path="url(#SVGID_2_)" fill="#FFFFFF" cx="478.578" cy="176.647" r="67.443"/>
        <g clip-path="url(#SVGID_2_)">
            <g>
                <path fill="#9E9E9E" d="M178.595,584.601c3.964,5.786,5.948,12.709,5.948,20.771c0,8.309-2.001,14.987-6.002,20.033
                                        c-2.236,2.832-5.531,5.417-9.884,7.755c6.613,2.524,11.604,6.524,14.97,12.001c3.366,5.479,5.048,12.125,5.048,19.941
                                        c0,8.063-1.923,15.294-5.77,21.694c-2.448,4.247-5.507,7.817-9.178,10.709c-4.138,3.323-9.019,5.601-14.643,6.832
                                        c-5.625,1.232-11.728,1.846-18.312,1.846H82.378V570.107h62.629C160.81,570.354,172.006,575.184,178.595,584.601z
                                        M108.228,593.74v30.003h31.498c5.627,0,10.195-1.122,13.705-3.37c3.509-2.246,5.265-6.231,5.265-11.955
                                        c0-6.338-2.32-10.524-6.961-12.555c-4.003-1.415-9.108-2.123-15.315-2.123H108.228z M108.228,646.269v36.281h31.463
                                        c5.619,0,9.994-0.799,13.124-2.4c5.678-2.954,8.518-8.616,8.518-16.986c0-7.077-2.753-11.939-8.256-14.586
                                        c-3.072-1.477-7.388-2.246-12.951-2.308H108.228z"/>
                <path fill="#9E9E9E" d="M279.069,693.873c-8.088,10.484-20.369,15.726-36.839,15.726c-16.472,0-28.75-5.242-36.839-15.726
                                        s-12.133-23.105-12.133-37.864c0-14.511,4.044-27.086,12.133-37.725s20.367-15.958,36.839-15.958
                                        c16.47,0,28.75,5.32,36.839,15.958c8.089,10.638,12.133,23.213,12.133,37.725C291.202,670.768,287.158,683.389,279.069,693.873z
                                        M259.023,679.331c3.926-5.47,5.891-13.243,5.891-23.323c0-10.079-1.964-17.837-5.891-23.276
                                        c-3.928-5.438-9.555-8.158-16.881-8.158c-7.328,0-12.968,2.72-16.925,8.158c-3.957,5.438-5.935,13.197-5.935,23.276
                                        c0,10.08,1.978,17.853,5.935,23.323c3.957,5.47,9.597,8.204,16.925,8.204C249.468,687.535,255.095,684.801,259.023,679.331z"/>
                <path fill="#9E9E9E" d="M378.255,693.873c-8.088,10.484-20.369,15.726-36.839,15.726c-16.472,0-28.75-5.242-36.839-15.726
                                        s-12.133-23.105-12.133-37.864c0-14.511,4.044-27.086,12.133-37.725s20.367-15.958,36.839-15.958
                                        c16.47,0,28.751,5.32,36.839,15.958c8.09,10.638,12.133,23.213,12.133,37.725C390.388,670.768,386.345,683.389,378.255,693.873z
                                        M358.209,679.331c3.926-5.47,5.891-13.243,5.891-23.323c0-10.079-1.964-17.837-5.891-23.276
                                        c-3.928-5.438-9.555-8.158-16.881-8.158c-7.328,0-12.968,2.72-16.925,8.158c-3.957,5.438-5.935,13.197-5.935,23.276
                                        c0,10.08,1.978,17.853,5.935,23.323c3.957,5.47,9.597,8.204,16.925,8.204C348.654,687.535,354.281,684.801,358.209,679.331z"/>
                <path fill="#9E9E9E" d="M397.257,570.568h24.618v73.407l31.604-37.957h31.16l-34.35,37.487l35.68,62.678h-30.496l-23.22-42.993
                                        l-10.379,11.328v31.665h-24.618V570.568z"/>
                <path fill="#9E9E9E" d="M508.4,664.178c0.838,6.217,2.483,10.863,4.938,13.94c4.488,5.601,12.178,8.401,23.071,8.401
                                        c6.522,0,11.819-0.739,15.889-2.216c7.721-2.83,11.581-8.092,11.581-15.786c0-4.492-1.892-7.97-5.673-10.432
                                        c-3.783-2.4-9.781-4.524-17.993-6.37l-14.03-3.231c-13.79-3.2-23.264-6.677-28.421-10.432
                                        c-8.734-6.277-13.101-16.093-13.101-29.449c0-12.186,4.271-22.309,12.816-30.372c8.545-8.062,21.094-12.094,37.649-12.094
                                        c13.824,0,25.617,3.801,35.379,11.401c9.761,7.602,14.878,18.633,15.354,33.096h-26.025c-0.48-8.185-3.966-14-10.455-17.448
                                        c-4.328-2.276-9.705-3.416-16.134-3.416c-7.152,0-12.86,1.477-17.127,4.431s-6.399,7.078-6.399,12.371
                                        c0,4.862,2.104,8.493,6.311,10.894c2.703,1.601,8.441,3.478,17.217,5.631l22.743,5.631c9.968,2.462,17.438,5.755,22.414,9.878
                                        c7.725,6.401,11.588,15.664,11.588,27.788c0,12.432-4.577,22.756-13.73,30.972s-22.084,12.325-38.79,12.325
                                        c-17.062,0-30.481-4.046-40.257-12.14c-9.776-8.092-14.662-19.216-14.662-33.373H508.4z"/>
            </g>
        </g>
    </g>
</svg>